<svg width="22.000000" height="22.000000" viewBox="0 0 22 22" fill="none" xmlns="http://www.w3.org/2000/svg" xmlns:xlink="http://www.w3.org/1999/xlink">
	<desc>
			Created with Pixso.
	</desc>
	<defs>
		<clipPath id="clip1_235">
			<rect id="bx:bx-cart" width="22.000000" height="22.000000" fill="white" fill-opacity="0"/>
		</clipPath>
	</defs>
	<rect id="bx:bx-cart" width="22.000000" height="22.000000" fill="#FFFFFF" fill-opacity="0"/>
	<g clip-path="url(#clip1_235)">
		<path id="Vector" d="M20.0035 6.81177C19.9193 6.68994 19.8066 6.59033 19.6754 6.52148C19.5442 6.45264 19.3982 6.41675 19.2501 6.41675L6.72195 6.41675L5.66412 3.87744C5.52542 3.54321 5.29056 3.25757 4.98929 3.05664C4.68805 2.85596 4.33395 2.74927 3.97195 2.75L1.83337 2.75L1.83337 4.58325L3.97195 4.58325L8.32062 15.0195C8.39029 15.1865 8.50778 15.3291 8.65836 15.4294C8.8089 15.5298 8.98578 15.5833 9.16672 15.5833L16.5001 15.5833C16.8823 15.5833 17.2242 15.3459 17.3589 14.9893L20.1089 7.65601C20.1609 7.51733 20.1785 7.36792 20.1602 7.22095C20.1418 7.07397 20.088 6.93359 20.0035 6.81177ZM15.8648 13.75L9.77814 13.75L7.48645 8.25L17.9273 8.25L15.8648 13.75Z" fill="#FFFFFF" fill-opacity="1.000000" fill-rule="nonzero"/>
		<path id="Vector" d="M11 17.875C11 18.6343 10.3844 19.25 9.625 19.25C8.8656 19.25 8.25 18.6343 8.25 17.875C8.25 17.1157 8.8656 16.5 9.625 16.5C10.3844 16.5 11 17.1157 11 17.875Z" fill="#FFFFFF" fill-opacity="1.000000" fill-rule="evenodd"/>
		<path id="Vector" d="M17.4166 17.875C17.4166 18.6343 16.801 19.25 16.0416 19.25C15.2822 19.25 14.6666 18.6343 14.6666 17.875C14.6666 17.1157 15.2822 16.5 16.0416 16.5C16.801 16.5 17.4166 17.1157 17.4166 17.875Z" fill="#FFFFFF" fill-opacity="1.000000" fill-rule="evenodd"/>
	</g>
</svg>
