<svg width="13.359985" height="13.333496" viewBox="0 0 13.36 13.3335" fill="none" xmlns="http://www.w3.org/2000/svg" xmlns:xlink="http://www.w3.org/1999/xlink">
	<desc>
			Created with Pixso.
	</desc>
	<defs/>
	<path id="Vector" d="M10.2667 13.3335C7.54486 13.3298 4.93555 12.2471 3.01093 10.3225C1.0863 8.39795 0.00354004 5.78857 0 3.06665C0 2.25342 0.32312 1.47339 0.898193 0.898193C1.47333 0.323242 2.25336 0 3.06665 0C3.23889 -0.0012207 3.41083 0.0144043 3.58002 0.0466309C3.74353 0.0710449 3.9043 0.111084 4.06 0.166748C4.16949 0.205078 4.26709 0.271484 4.34308 0.359131C4.41907 0.446777 4.47089 0.552979 4.49335 0.666748L5.40668 4.66675C5.43127 4.77539 5.42834 4.88843 5.39807 4.99536C5.36774 5.10254 5.31116 5.20044 5.23334 5.28003C5.14667 5.37329 5.14001 5.38013 4.32001 5.80664C4.97668 7.24731 6.12878 8.4043 7.56665 9.06665C8 8.23999 8.00665 8.2334 8.09998 8.14673C8.17963 8.06885 8.27747 8.01221 8.38458 7.98193C8.49176 7.95166 8.60474 7.94873 8.71332 7.97339L12.7133 8.88672C12.8235 8.91235 12.9254 8.96558 13.0094 9.04126C13.0934 9.11719 13.1567 9.21313 13.1934 9.32007C13.2496 9.47827 13.292 9.64111 13.32 9.80664C13.3468 9.97437 13.3602 10.1438 13.36 10.3135C13.3477 11.1233 13.0155 11.8953 12.436 12.4612C11.8564 13.0271 11.0766 13.3406 10.2667 13.3335ZM3.06665 1.3335C2.60748 1.33521 2.16766 1.51831 1.84296 1.84302C1.51825 2.16772 1.33508 2.60767 1.33331 3.06665C1.33508 5.43555 2.27686 7.70679 3.95178 9.38159C5.62671 11.0566 7.89795 11.9983 10.2667 12C10.7258 11.9983 11.1657 11.8152 11.4904 11.4905C11.8151 11.1658 11.9982 10.7258 12 10.2668L12 10.0466L8.90668 9.3335L8.71332 9.7002C8.41333 10.28 8.19336 10.7002 7.63336 10.4734C6.52856 10.0779 5.52582 9.44141 4.69781 8.61011C3.86987 7.77856 3.23749 6.77319 2.84668 5.66675C2.60669 5.14673 3.06 4.90674 3.63336 4.60669L4 4.42676L3.28668 1.3335L3.06665 1.3335Z" fill="#969696" fill-opacity="1.000000" fill-rule="nonzero"/>
</svg>
