<svg width="16.501526" height="16.501465" viewBox="0 0 16.5015 16.5015" fill="none" xmlns="http://www.w3.org/2000/svg" xmlns:xlink="http://www.w3.org/1999/xlink">
	<desc>
			Created with Pixso.
	</desc>
	<defs/>
	<path id="Vector" d="M16.5015 14.6682L11.777 9.9436C12.6505 8.61621 13.0003 7.01196 12.7588 5.44141C12.5173 3.87085 11.7017 2.4458 10.4698 1.44214C9.23792 0.438477 7.67743 -0.0725098 6.09045 0.00830078C4.50354 0.0891113 3.00299 0.755859 1.87939 1.87939C0.755798 3.00293 0.0890503 4.50342 0.00830078 6.09058C-0.0724487 7.67749 0.438416 9.23779 1.44214 10.4697C2.44586 11.7017 3.87091 12.5173 5.44147 12.7588C7.01202 13.0002 8.61627 12.6504 9.94373 11.7771L14.6682 16.5015L16.5015 14.6682ZM1.8349 6.41821C1.8349 3.89087 3.89099 1.83496 6.41821 1.83496C8.94543 1.83496 11.0015 3.89087 11.0015 6.41821C11.0015 8.94556 8.94543 11.0015 6.41821 11.0015C3.89099 11.0015 1.8349 8.94556 1.8349 6.41821Z" fill="#FFFFFF" fill-opacity="1.000000" fill-rule="nonzero"/>
</svg>
